PathFileType	4	(X/Y/Z)	G:\GRF\jawan data\CompiledGRF\03. Mohit Kumar\0231~ac~Standing_markers.trc
DataRate	CameraRate	NumFrames	NumMarkers	Units	OrigDataRate	OrigDataStartFrame	OrigNumFrames
100.000000	100.000000	4	18	mm	100.000000	0	584
Frame#	Time	c7			r should			l should			sacrum			r asis			r bar 1			r knee 1			r bar 2			r mall			r heel			r met			l asis			l bar 1			l knee 1			l bar 2			l mall			l heel			l met			
		X1	Y1	Z1	X2	Y2	Z2	X3	Y3	Z3	X4	Y4	Z4	X5	Y5	Z5	X6	Y6	Z6	X7	Y7	Z7	X8	Y8	Z8	X9	Y9	Z9	X10	Y10	Z10	X11	Y11	Z11	X12	Y12	Z12	X13	Y13	Z13	X14	Y14	Z14	X15	Y15	Z15	X16	Y16	Z16	X17	Y17	Z17	X18	Y18	Z18	

1	0	297.1876220703125	1519.832885742188	150.4118041992188	385.0896911621094	1459.901733398438	320.3048400878906	379.9173889160156	1470.849731445313	-19.48805618286133	272.5867004394531	1060.29931640625	133.9330596923828	451.9710998535156	1018.970397949219	264.2550659179688	341.9026489257813	613.5126953125	331.6478576660156	353.2548522949219	525.0678100585938	281.2392578125	287.8838806152344	202.5535583496094	302.6216125488281	302.6669006347656	75.60604858398438	241.9537811279297	251.7070159912109	38.47806930541992	190.3239440917969	453.5330505371094	38.84708404541016	253.1877136230469	457.8739929199219	1025.263427734375	11.20132732391357	347.8724365234375	606.6499633789063	-43.57525634765625	351.8504638671875	517.8395385742188	14.91444396972656	291.4696655273438	243.2192687988281	-20.08840560913086	299.5520629882813	75.21136474609375	57.15650939941406	246.0043029785156	34.96080780029297	116.6291046142578	447.6257934570313	39.47904586791992	58.29297637939453	
2	0.01	297.4427490234375	1519.771240234375	150.4153594970703	385.0479431152344	1459.875732421875	320.3119812011719	379.8577270507813	1470.83349609375	-19.51878356933594	272.6832580566406	1060.287353515625	133.9315338134766	452.0148010253906	1019.016967773438	264.1537170410156	341.9105529785156	613.4990844726563	331.6088256835938	353.2620544433594	525.04736328125	281.1884765625	287.7909240722656	202.6041717529297	302.6512145996094	302.6590270996094	75.58358764648438	241.9529418945313	251.5408172607422	38.65111541748047	190.2864685058594	453.6095275878906	38.82215881347656	253.1665802001953	457.8868408203125	1025.203979492188	11.20017433166504	348.1210632324219	606.6593017578125	-43.66201400756836	352.1773071289063	517.914794921875	14.8727331161499	291.4755859375	243.2222595214844	-20.08353233337402	299.4951171875	75.19926452636719	57.17125701904297	246.2160034179688	34.97381210327148	116.6232528686523	447.6248474121094	39.52004623413086	58.28224563598633	
3	0.02	297.1544189453125	1519.827514648438	150.3671112060547	384.921630859375	1459.867065429688	320.3294372558594	379.9725036621094	1470.799438476563	-19.5644359588623	272.8021240234375	1060.24462890625	133.9172821044922	451.8600463867188	1018.995178222656	264.1177062988281	341.9515686035156	613.4681396484375	331.6204528808594	353.2963256835938	525.064208984375	281.1838684082031	287.7975769042969	202.5997467041016	302.6490173339844	302.6500549316406	75.57370758056641	241.9704284667969	251.4229736328125	38.70672607421875	190.2652740478516	453.5762329101563	38.84541320800781	253.1313934326172	457.8059997558594	1025.185668945313	11.20183086395264	348.1270751953125	606.6701049804688	-43.68372344970703	352.3212280273438	517.9533081054688	14.88906097412109	291.4980773925781	243.2254791259766	-20.12313842773438	299.4947204589844	75.19284820556641	57.15400314331055	246.1256256103516	35.0244026184082	116.6094436645508	447.6539916992188	39.44156646728516	58.31337738037109	
4	0.03	297.1618041992188	1519.7841796875	150.3345947265625	384.8497009277344	1459.863403320313	320.2909851074219	380.1125793457031	1470.791748046875	-19.55741691589355	272.812744140625	1060.245971679688	133.8862915039063	451.7276611328125	1018.93505859375	264.1241455078125	342.0647277832031	613.4785766601563	331.6518249511719	353.2777709960938	525.0767211914063	281.1637573242188	287.7456665039063	202.6156158447266	302.609130859375	302.6580505371094	75.55680847167969	241.9879760742188	251.2368316650391	38.78518295288086	190.2588348388672	453.6045227050781	38.86189270019531	253.1335906982422	457.9113159179688	1025.199584960938	11.22361469268799	348.09814453125	606.630126953125	-43.64387512207031	352.3540649414063	517.9266357421875	14.88511848449707	291.5262145996094	243.212646484375	-20.13625144958496	299.5914306640625	75.16445159912109	57.15034484863281	245.8069610595703	35.17515563964844	116.5648880004883	447.6092224121094	39.45980453491211	58.33447647094727	
